#!OML:ASF H:\ManfredObstacles\Project 1\Capture day 2\Session 1\male.ASF
:FULLY-SPECIFIED
:DEGREES
436
root 0.453835 8.16872 -2.70119 -173.928 8.26952 -173.584
lowerback 44.0485 -0.740989 -5.53709
upperback 17.9205 4.2219 -0.582787
thorax -0.492096 4.4958 0.659872
lowerneck -31.3187 1.20706 2.75565
upperneck 27.8223 0.432922 0.834304
head 14.8952 0.724932 0.0118341
rclavicle 7.95139e-015 5.1684e-015
rhumerus 24.2491 10.7961 -62.9541
rradius 42.9251
rwrist 26.7422
rhand -10.8271 -7.80421
rfingers 7.12502
rthumb 15.187 -37.2269
lclavicle 7.95139e-015 5.1684e-015
lhumerus 28.8663 1.39099 81.5126
lradius 21.189
lwrist -50.2093
lhand -16.6901 17.9898
lfingers 7.12502
lthumb 9.53437 47.7541
rfemur -96.0493 2.81284 30.7804
rtibia 131.06
rfoot -21.3045 -20.1999
rtoes -28.3202
lfemur -84.7364 18.3759 -26.689
ltibia 145.633
lfoot -10.2751 34.9521
ltoes -13.1005
437
root 0.469566 8.11082 -2.7572 -174.08 8.01883 -173.875
lowerback 43.8451 -0.861688 -5.23027
upperback 17.8895 4.19901 -0.700436
thorax -0.465931 4.51626 0.397604
lowerneck -31.4378 1.07487 2.9877
upperneck 27.8846 0.0681843 0.991234
head 14.9457 0.626844 -0.0369812
rclavicle 8.74653e-015 1.13307e-014
rhumerus 24.4651 10.1539 -63.3356
rradius 42.611
rwrist 27.1709
rhand -10.7278 -7.87075
rfingers 7.12502
rthumb 15.2827 -37.2861
lclavicle 8.74653e-015 1.13307e-014
lhumerus 28.5663 0.84091 81.4712
lradius 21.0819
lwrist -50.1377
lhand -16.6811 17.8341
lfingers 7.12502
lthumb 9.54307 47.598
rfemur -95.8497 2.61474 30.6317
rtibia 131.911
rfoot -22.1724 -20.5449
rtoes -28.088
lfemur -84.4621 18.3908 -26.943
ltibia 146.16
lfoot -10.3348 35.1566
ltoes -13.2058
438
root 0.487642 8.05255 -2.8127 -174.225 7.7434 -174.18
lowerback 43.6676 -0.947633 -4.9962
upperback 17.8372 4.17748 -0.753319
thorax -0.475532 4.5244 0.236096
lowerneck -31.5329 0.936627 3.13413
upperneck 27.9513 -0.257583 1.13644
head 14.9933 0.534068 -0.0685097
rclavicle -1.19271e-014 -5.1684e-015
rhumerus 24.6683 9.5967 -63.6454
rradius 42.2832
rwrist 27.5297
rhand -10.5874 -7.95631
rfingers 7.12502
rthumb 15.418 -37.3613
lclavicle -1.19271e-014 -5.1684e-015
lhumerus 28.1976 0.329837 81.4818
lradius 21.0083
lwrist -50.0345
lhand -16.6855 17.6665
lfingers 7.12502
lthumb 9.53883 47.4305
rfemur -95.6921 2.38349 30.4474
rtibia 132.799
rfoot -23.1492 -20.7372
rtoes -28.0097
lfemur -84.2015 18.3835 -27.1894
ltibia 146.68
lfoot -10.3848 35.34
ltoes -13.3384
439
root 0.507953 7.99495 -2.86755 -174.371 7.44944 -174.493
lowerback 43.5219 -1.01683 -4.83897
upperback 17.7836 4.14409 -0.754756
thorax -0.498238 4.51729 0.169722
lowerneck -31.6065 0.814142 3.20256
upperneck 27.9853 -0.517872 1.2683
head 15.0224 0.456567 -0.0793252
rclavicle -9.54166e-015 6.36111e-015
rhumerus 24.924 9.15104 -63.8823
rradius 41.9358
rwrist 27.7697
rhand -10.4332 -8.06143
rfingers 7.12502
rthumb 15.5665 -37.455
lclavicle -9.54166e-015 6.36111e-015
lhumerus 27.799 -0.107709 81.5234
lradius 20.9609
lwrist -49.9433
lhand -16.6976 17.5031
lfingers 7.12502
lthumb 9.52709 47.2677
rfemur -95.5765 2.12648 30.237
rtibia 133.669
rfoot -24.0694 -20.8596
rtoes -27.9364
lfemur -83.9335 18.3641 -27.4047
ltibia 147.186
lfoot -10.4279 35.4889
ltoes -13.4899
440
root 0.530382 7.93908 -2.92181 -174.531 7.15552 -174.815
lowerback 43.4197 -1.08637 -4.73838
upperback 17.7377 4.09273 -0.746279
thorax -0.523444 4.49909 0.147132
lowerneck -31.7349 0.704351 3.19617
upperneck 28.0247 -0.735648 1.42454
head 15.066 0.392104 -0.0583643
rclavicle -1.19271e-015 1.74931e-014
rhumerus 25.2511 8.76656 -64.1278
rradius 41.555
rwrist 27.9527
rhand -10.2693 -8.16331
rfingers 7.12502
rthumb 15.7243 -37.5445
lclavicle -1.19271e-015 1.74931e-014
lhumerus 27.3979 -0.501657 81.5337
lradius 20.9396
lwrist -49.8729
lhand -16.7143 17.3617
lfingers 7.12502
lthumb 9.51103 47.127
rfemur -95.495 1.86379 30.0052
rtibia 134.487
rfoot -24.8124 -20.9885
rtoes -27.8363
lfemur -83.6248 18.3541 -27.5736
ltibia 147.672
lfoot -10.5141 35.5899
ltoes -13.6361
441
root 0.555021 7.88624 -2.97533 -174.709 6.87032 -175.147
lowerback 43.3442 -1.1392 -4.70257
upperback 17.7183 4.05178 -0.717389
thorax -0.527092 4.48465 0.175964
lowerneck -31.8868 0.598156 3.12238
upperneck 28.0412 -0.92285 1.5946
head 15.105 0.333868 -0.0141992
rclavicle -2.22639e-014 6.16232e-015
rhumerus 25.6585 8.41777 -64.3475
rradius 41.1346
rwrist 28.0663
rhand -10.1377 -8.27736
rfingers 7.12502
rthumb 15.851 -37.6485
lclavicle -2.22639e-014 6.16232e-015
lhumerus 27.0378 -0.86394 81.552
lradius 20.9241
lwrist -49.8432
lhand -16.7431 17.2429
lfingers 7.12502
lthumb 9.4832 47.0095
rfemur -95.4334 1.60945 29.7649
rtibia 135.242
rfoot -25.3685 -21.1412
rtoes -27.7897
lfemur -83.2737 18.3619 -27.6954
ltibia 148.128
lfoot -10.6279 35.6363
ltoes -13.7623
442
root 0.581787 7.83641 -3.02811 -174.892 6.58372 -175.478
lowerback 43.292 -1.18574 -4.69502
upperback 17.7161 4.01896 -0.681629
thorax -0.517953 4.47535 0.223715
lowerneck -32.0631 0.492266 3.0158
upperneck 28.044 -1.10098 1.77981
head 15.1436 0.277592 0.0435621
rclavicle 7.95139e-016 -9.74045e-015
rhumerus 26.108 8.0658 -64.5831
rradius 40.6847
rwrist 28.1975
rhand -10.0355 -8.39651
rfingers 7.12502
rthumb 15.9495 -37.7598
lclavicle 7.95139e-016 -9.74045e-015
lhumerus 26.7071 -1.20704 81.5778
lradius 20.9092
lwrist -49.8494
lhand -16.8083 17.1368
lfingers 7.12502
lthumb 9.42027 46.9063
rfemur -95.4006 1.35752 29.5426
rtibia 135.956
rfoot -25.7664 -21.2894
rtoes -27.7553
lfemur -82.9117 18.3731 -27.7845
ltibia 148.553
lfoot -10.7024 35.6557
ltoes -13.8865
443
root 0.610524 7.79005 -3.08025 -175.074 6.29568 -175.81
lowerback 43.255 -1.22804 -4.70429
upperback 17.7262 3.99353 -0.649247
thorax -0.498445 4.47152 0.274119
lowerneck -32.2347 0.387453 2.89657
upperneck 28.0252 -1.27605 1.97946
head 15.1724 0.222951 0.109933
rclavicle -1.90833e-014 2.52457e-014
rhumerus 26.5851 7.70135 -64.8441
rradius 40.1908
rwrist 28.3961
rhand -9.98613 -8.51232
rfingers 7.12502
rthumb 15.997 -37.8718
lclavicle -1.90833e-014 2.52457e-014
lhumerus 26.4012 -1.53072 81.6069
lradius 20.8907
lwrist -49.8963
lhand -16.9169 17.0295
lfingers 7.12502
lthumb 9.31557 46.8037
rfemur -95.3948 1.1167 29.3498
rtibia 136.653
rfoot -25.9916 -21.4723
rtoes -27.7685
lfemur -82.536 18.3852 -27.8506
ltibia 148.949
lfoot -10.7227 35.6608
ltoes -14.0235
444
root 0.641334 7.7471 -3.13138 -175.239 5.99719 -176.142
lowerback 43.2268 -1.26859 -4.71296
upperback 17.733 3.97047 -0.621386
thorax -0.48461 4.46937 0.317897
lowerneck -32.3647 0.286077 2.7883
upperneck 27.9758 -1.44668 2.17348
head 15.1796 0.1697 0.172643
rclavicle -1.15295e-014 -6.55989e-015
rhumerus 27.0652 7.31428 -65.1402
rradius 39.6515
rwrist 28.7131
rhand -9.94664 -8.63579
rfingers 7.12502
rthumb 16.035 -37.9922
lclavicle -1.15295e-014 -6.55989e-015
lhumerus 26.0989 -1.82983 81.6498
lradius 20.856
lwrist -49.9751
lhand -17.0806 16.8998
lfingers 7.12502
lthumb 9.15761 46.681
rfemur -95.4192 0.871209 29.1918
rtibia 137.356
rfoot -26.1643 -21.6067
rtoes -27.783
lfemur -82.1764 18.3856 -27.9067
ltibia 149.319
lfoot -10.6899 35.6606
ltoes -14.1669
445
root 0.674033 7.70761 -3.18155 -175.382 5.67916 -176.468
lowerback 43.2 -1.31828 -4.71163
upperback 17.7408 3.94153 -0.601324
thorax -0.469241 4.46597 0.350523
lowerneck -32.4669 0.187421 2.69421
upperneck 27.921 -1.61604 2.36308
head 15.1792 0.117981 0.231293
rclavicle 1.76918e-014 1.77912e-014
rhumerus 27.5671 6.92134 -65.4551
rradius 39.0587
rwrist 29.1046
rhand -9.91116 -8.76136
rfingers 7.12502
rthumb 16.0692 -38.1151
lclavicle 1.76918e-014 1.77912e-014
lhumerus 25.806 -2.10669 81.6844
lradius 20.8084
lwrist -50.0776
lhand -17.2896 16.7534
lfingers 7.12502
lthumb 8.95589 46.5433
rfemur -95.461 0.609076 29.0781
rtibia 138.064
rfoot -26.3444 -21.6978
rtoes -27.7882
lfemur -81.8352 18.3641 -27.9552
ltibia 149.667
lfoot -10.6188 35.6634
ltoes -14.3039
446
root 0.708787 7.67223 -3.23037 -175.494 5.34196 -176.786
lowerback 43.1757 -1.37396 -4.69223
upperback 17.7414 3.90969 -0.590386
thorax -0.461908 4.46231 0.364677
lowerneck -32.5539 0.0917617 2.63419
upperneck 27.8648 -1.789 2.53035
head 15.1752 0.0651575 0.274007
rclavicle 1.82882e-014 -1.11319e-014
rhumerus 28.0684 6.5019 -65.8128
rradius 38.4107
rwrist 29.5626
rhand -9.86519 -8.8853
rfingers 7.12502
rthumb 16.1135 -38.2354
lclavicle 1.82882e-014 -1.11319e-014
lhumerus 25.5212 -2.37757 81.7038
lradius 20.7462
lwrist -50.1986
lhand -17.5315 16.5964
lfingers 7.12502
lthumb 8.72242 46.3962
rfemur -95.5105 0.337732 29.0048
rtibia 138.752
rfoot -26.5427 -21.7685
rtoes -27.789
lfemur -81.526 18.321 -27.9881
ltibia 149.988
lfoot -10.5636 35.6432
ltoes -14.4282
